:SAMPLES-PER-SECOND 30
:FULLY-SPECIFIED
:DEGREES
1
root  41.3117 39.5615 5.4271 -27.3903 -88.1919 25.2168
RightUpLeg  0.579265 -9.062 -5.53058
RightLeg  6.52141 4.76416 0.309736
RightFoot  -4.28022 -0.187517 2.58954
RightToes  -6.98493e-010 0 -3.6325e-017
Spine  4.11773 -1.63072 3.93687
Spine1  1.9935 -1.33458 -0.793206
HEad  -14.9451 -7.55774 -4.51195
LeftShoulder1  -0.18852 4.10317 -25.1856
LeftArm  -19.8699 12.1278 -35.2251
LeftForeArm  22.492 -18.4567 -2.57789
LeftHand  -0.0383653 4.651 3.18911
RightShoulder  -0.569141 -5.5643 20.7776
RightArm  -13.0031 -14.0685 28.9096
RightForeArm  13.5995 31.2873 6.10127
RightHand  -0.290215 2.25443 -4.60099
LeftUpLeg  0.0862367 8.29392 8.49758
LeftLeg  0.590166 -4.95228 1.16708
LeftFoot  2.09972 0.692888 -6.01106
LeftToes  7.91257e-010 -1.64976e-010 -3.02228e-011
2
root  41.3489 39.5561 5.38364 -25.5584 -88.3476 23.0622
RightUpLeg  0.850784 -9.03281 -5.39387
RightLeg  6.5346 4.83872 0.375321
RightFoot  -4.29483 -0.182048 2.50469
RightToes  -6.98493e-010 0 -3.6325e-017
Spine  4.53983 -1.55191 3.88186
Spine1  1.88815 -1.2685 -0.637096
HEad  -14.7734 -7.60073 -4.61677
LeftShoulder1  -0.199997 4.13771 -25.2856
LeftArm  -20.0608 12.0022 -35.3629
LeftForeArm  22.8597 -19.0582 -2.7171
LeftHand  -0.0376485 4.92828 3.51352
RightShoulder  -0.564146 -5.53904 20.873
RightArm  -12.511 -13.968 29.3073
RightForeArm  14.6233 32.1127 6.24948
RightHand  -0.277573 2.0708 -4.49566
LeftUpLeg  0.378013 8.41756 8.74542
LeftLeg  0.64197 -5.04444 1.19143
LeftFoot  2.04379 0.691726 -5.99547
LeftToes  7.91257e-010 -1.64976e-010 -3.02228e-011
3
root  41.3951 39.552 5.34215 -24.5831 -88.4429 22.0842
RightUpLeg  0.773114 -9.14726 -5.34618
RightLeg  6.53409 5.00665 0.60435
RightFoot  -4.15256 -0.165366 2.24587
RightToes  -6.98493e-010 0 -3.6325e-017
Spine  4.49145 -1.50756 3.96158
Spine1  1.96912 -1.19417 -0.78751
HEad  -15.3993 -7.96981 -4.23729
LeftShoulder1  -0.174396 4.05858 -25.1672
LeftArm  -20.7732 12.274 -35.7147
LeftForeArm  24.0372 -19.729 -2.77927
LeftHand  -0.0447184 4.09611 2.2875
RightShoulder  -0.590606 -5.59271 21.4632
RightArm  -11.7029 -13.8975 29.4854
RightForeArm  15.5031 32.993 6.42217
RightHand  -0.230911 2.07034 -3.78192
LeftUpLeg  0.370858 8.51281 8.90329
LeftLeg  0.561195 -5.05058 1.18698
LeftFoot  2.07757 0.697975 -6.03775
LeftToes  7.91257e-010 -1.64976e-010 -3.02228e-011
4
root  41.4184 39.5573 5.28895 -32.6825 -88.9017 30.2031
RightUpLeg  0.600151 -8.96192 -5.14017
RightLeg  6.57625 5.23585 0.533713
RightFoot  -4.10744 -0.158433 2.1383
RightToes  -6.98493e-010 0 -3.6325e-017
Spine  4.28032 -1.27956 3.64023
Spine1  2.26991 -1.03606 -0.46028
HEad  -15.8939 -8.15266 -4.30983
LeftShoulder1  -0.229473 4.22586 -25.5238
LeftArm  -20.1673 12.2993 -35.5971
LeftForeArm  23.9763 -19.6388 -2.80483
LeftHand  -0.0505497 3.19614 1.81741
RightShoulder  -0.595621 -5.59798 21.638
RightArm  -11.296 -13.88 30.1856
RightForeArm  16.3495 33.0606 6.39051
RightHand  -0.236588 2.4044 -3.73769
LeftUpLeg  0.643638 8.76025 9.14197
LeftLeg  0.196764 -4.80015 1.06091
LeftFoot  2.10384 0.72366 -6.24461
LeftToes  7.91257e-010 -1.64976e-010 -3.02228e-011
5
root  41.4575 39.554 5.25644 -34.7702 -88.9301 32.352
RightUpLeg  0.39743 -8.90697 -5.06805
RightLeg  6.7014 5.20148 0.521638
RightFoot  -4.12465 -0.156617 2.11012
RightToes  -6.98493e-010 0 -3.6325e-017
Spine  4.08087 -1.27414 3.22118
Spine1  2.57274 -1.14294 0.0467586
HEad  -15.8253 -7.81999 -4.70232
LeftShoulder1  -0.268029 4.33885 -25.8605
LeftArm  -19.2842 12.1573 -35.6226
LeftForeArm  22.9966 -18.7055 -2.69606
LeftHand  -0.0492608 3.87781 2.30579
RightShoulder  -0.57985 -5.55465 21.4578
RightArm  -11.0478 -13.8171 31.2826
RightForeArm  17.0907 32.2725 6.14656
RightHand  -0.242538 1.72571 -4.12796
LeftUpLeg  0.569895 8.69001 9.1091
LeftLeg  0.0920435 -4.60109 1.14543
LeftFoot  2.15483 0.724637 -6.23356
LeftToes  7.91257e-010 -1.64976e-010 -3.02228e-011
6
root  41.4978 39.5496 5.2262 -27.7389 -88.7896 25.3769
RightUpLeg  0.275887 -8.88213 -4.95713
RightLeg  6.75245 4.96097 0.550506
RightFoot  -4.13396 -0.153856 2.06728
RightToes  -6.98493e-010 0 -3.6325e-017
Spine  4.25306 -1.40616 3.10862
Spine1  2.31017 -1.30356 0.172097
HEad  -15.9403 -7.79524 -4.84376
LeftShoulder1  -0.279465 4.37352 -25.8917
LeftArm  -18.4034 12.3359 -35.7166
LeftForeArm  22.2623 -17.3587 -2.53559
LeftHand  -0.0446069 4.2375 2.368
RightShoulder  -0.564295 -5.4848 21.6644
RightArm  -10.9859 -14.1107 31.8889
RightForeArm  17.1439 30.9171 5.80814
RightHand  -0.222499 2.34402 -3.52991
LeftUpLeg  0.340803 8.68675 9.16356
LeftLeg  0.174811 -4.78332 1.18045
LeftFoot  2.19841 0.728573 -6.25368
LeftToes  7.91257e-010 -1.64976e-010 -3.02228e-011
7
root  41.5404 39.5421 5.20294 -20.7481 -88.5419 18.4373
RightUpLeg  0.13752 -8.9062 -4.89667
RightLeg  6.87809 4.70703 0.608514
RightFoot  -4.19691 -0.15655 2.10908
RightToes  -6.98493e-010 0 -3.6325e-017
Spine  4.48108 -1.54697 3.03391
Spine1  2.02237 -1.46029 0.258881
HEad  -16.0615 -7.6234 -5.03073
LeftShoulder1  -0.282187 4.38117 -25.9223
LeftArm  -18.0298 12.4934 -35.9712
LeftForeArm  21.9775 -15.7483 -2.29395
LeftHand  -0.0343666 4.77544 1.8768
RightShoulder  -0.584407 -5.5343 21.9804
RightArm  -10.5946 -14.2149 32.3227
RightForeArm  16.033 28.8701 5.38065
RightHand  -0.271608 2.14666 -4.36777
LeftUpLeg  0.0746303 8.66383 9.19876
LeftLeg  0.302698 -5.00205 1.20003
LeftFoot  2.14302 0.737718 -6.34785
LeftToes  7.91257e-010 -1.64976e-010 -3.02228e-011
8
root  41.5636 39.5405 5.18526 -18.8921 -88.6194 16.6488
RightUpLeg  0.0147614 -8.79738 -4.74097
RightLeg  6.87143 4.60633 0.564601
RightFoot  -4.10423 -0.151453 2.03001
RightToes  -6.98493e-010 0 -3.6325e-017
Spine  4.51212 -1.53792 3.11002
Spine1  1.97836 -1.43617 0.191594
HEad  -15.8907 -6.81241 -5.15928
LeftShoulder1  -0.271576 4.34797 -25.9322
LeftArm  -17.6317 12.7105 -36.1621
LeftForeArm  21.3155 -13.8468 -2.08257
LeftHand  -0.0300981 4.93913 1.31925
RightShoulder  -0.601009 -5.57848 22.1837
RightArm  -10.4161 -14.3831 32.7091
RightForeArm  16.3122 26.621 4.85719
RightHand  -0.223563 1.83845 -3.75913
LeftUpLeg  -0.0649695 8.73978 9.31245
LeftLeg  0.393286 -4.99369 1.16518
LeftFoot  2.09341 0.751473 -6.48169
LeftToes  7.91257e-010 -1.64976e-010 -3.02228e-011
